<mxfile host="app.diagrams.net" agent="Mozilla/5.0 (Windows NT 10.0; Win64; x64) AppleWebKit/537.36 (KHTML, like Gecko) Chrome/131.0.0.0 Safari/537.36" version="25.0.3">
  <diagram name="Page-1" id="4Q0C3-sA8KDyXb6D_Klg">
    <mxGraphModel dx="423" dy="549" grid="1" gridSize="10" guides="1" tooltips="1" connect="1" arrows="1" fold="1" page="1" pageScale="1" pageWidth="850" pageHeight="1100" math="0" shadow="0">
      <root>
        <mxCell id="0" />
        <mxCell id="1" parent="0" />
        <mxCell id="p6e5jBbzX7TUTisnzlLE-1" value="Clients" style="shape=umlActor;verticalLabelPosition=bottom;verticalAlign=top;html=1;outlineConnect=0;" vertex="1" parent="1">
          <mxGeometry x="80" y="370" width="30" height="60" as="geometry" />
        </mxCell>
        <mxCell id="p6e5jBbzX7TUTisnzlLE-2" value="Sign Up" style="ellipse;whiteSpace=wrap;html=1;" vertex="1" parent="1">
          <mxGeometry x="350" y="140" width="90" height="60" as="geometry" />
        </mxCell>
        <mxCell id="p6e5jBbzX7TUTisnzlLE-3" value="Login" style="ellipse;whiteSpace=wrap;html=1;" vertex="1" parent="1">
          <mxGeometry x="350" y="220" width="90" height="60" as="geometry" />
        </mxCell>
        <mxCell id="p6e5jBbzX7TUTisnzlLE-4" value="Sign Up" style="ellipse;whiteSpace=wrap;html=1;" vertex="1" parent="1">
          <mxGeometry x="350" y="300" width="90" height="60" as="geometry" />
        </mxCell>
        <mxCell id="p6e5jBbzX7TUTisnzlLE-5" value="Generate Reports" style="ellipse;whiteSpace=wrap;html=1;" vertex="1" parent="1">
          <mxGeometry x="350" y="700" width="90" height="60" as="geometry" />
        </mxCell>
        <mxCell id="p6e5jBbzX7TUTisnzlLE-6" value="Place Order" style="ellipse;whiteSpace=wrap;html=1;" vertex="1" parent="1">
          <mxGeometry x="350" y="460" width="90" height="60" as="geometry" />
        </mxCell>
        <mxCell id="p6e5jBbzX7TUTisnzlLE-7" value="Access History" style="ellipse;whiteSpace=wrap;html=1;" vertex="1" parent="1">
          <mxGeometry x="350" y="620" width="90" height="60" as="geometry" />
        </mxCell>
        <mxCell id="p6e5jBbzX7TUTisnzlLE-8" value="Update Products" style="ellipse;whiteSpace=wrap;html=1;" vertex="1" parent="1">
          <mxGeometry x="350" y="780" width="90" height="60" as="geometry" />
        </mxCell>
        <mxCell id="p6e5jBbzX7TUTisnzlLE-9" value="Browse Items" style="ellipse;whiteSpace=wrap;html=1;" vertex="1" parent="1">
          <mxGeometry x="350" y="380" width="90" height="60" as="geometry" />
        </mxCell>
        <mxCell id="p6e5jBbzX7TUTisnzlLE-10" value="Register for classes" style="ellipse;whiteSpace=wrap;html=1;" vertex="1" parent="1">
          <mxGeometry x="350" y="540" width="90" height="60" as="geometry" />
        </mxCell>
      </root>
    </mxGraphModel>
  </diagram>
</mxfile>
